<?xml version="1.0" encoding="UTF-8"?>
<!DOCTYPE svg PUBLIC "-//W3C//DTD SVG 1.1//EN" "http://www.w3.org/Graphics/SVG/1.1/DTD/svg11.dtd">
<!-- Creator: CorelDRAW 2020 (64 Bit) -->
<svg xmlns="http://www.w3.org/2000/svg" xml:space="preserve" width="92.5937mm" height="18.9985mm" version="1.1" style="shape-rendering:geometricPrecision; text-rendering:geometricPrecision; image-rendering:optimizeQuality; fill-rule:evenodd; clip-rule:evenodd"
viewBox="0 0 7336.77 1505.37"
 xmlns:xlink="http://www.w3.org/1999/xlink"
 xmlns:xodm="http://www.corel.com/coreldraw/odm/2003">
 <defs>
  <style type="text/css">
   <![CDATA[
    .fil4 {fill:#BDBFC1;fill-rule:nonzero}
    .fil3 {fill:#4B4B4D;fill-rule:nonzero}
    .fil0 {fill:#0066B3;fill-rule:nonzero}
    .fil2 {fill:#ED1C24;fill-rule:nonzero}
    .fil1 {fill:white;fill-rule:nonzero}
   ]]>
  </style>
 </defs>
 <g id="Camada_x0020_1">
  <metadata id="CorelCorpID_0Corel-Layer"/>
  <g id="_2268548559968">
   <g>
    <g>
     <path class="fil0" d="M1597.31 752.83c0,415.67 -341.24,752.54 -752.54,752.54 -415.67,0 -752.54,-336.86 -752.54,-752.54 0,-411.3 336.86,-752.83 752.54,-752.83 411.3,0.29 752.54,341.53 752.54,752.83z"/>
     <path class="fil1" d="M853.25 70.35c0,4.37 -4.38,4.37 -4.38,4.37 -4.37,0 -8.76,0 -8.76,-4.37 0,-4.38 4.38,-4.38 8.76,-4.38 0.29,0 4.38,0 4.38,4.38z"/>
     <path class="fil1" d="M897.03 162.3c0,4.38 -4.38,8.76 -8.76,8.76 -4.38,0 -8.76,-4.37 -8.76,-8.76 0,-4.37 4.38,-8.76 8.76,-8.76 4.37,0 8.76,4.38 8.76,8.76z"/>
     <path class="fil1" d="M1006.5 315.26c0,4.38 -4.38,8.76 -8.76,8.76 -4.38,0 -8.76,-4.38 -8.76,-8.76 0,-4.37 4.38,-8.76 8.76,-8.76 4.37,0 8.76,4.38 8.76,8.76z"/>
     <path class="fil1" d="M827.27 214.84c0,4.38 0,8.76 -4.38,8.76 -4.37,0 -4.37,-4.38 -4.37,-8.76 0,-4.37 0,-4.37 4.37,-4.37 4.38,0 4.38,0 4.38,4.37z"/>
     <path class="fil1" d="M892.65 249.58c0,4.38 0,8.76 -4.37,8.76 -4.38,0 -4.38,-4.38 -4.38,-8.76 0,-4.37 0,-4.37 4.38,-4.37 4.37,0 4.37,0 4.37,4.37z"/>
     <path class="fil1" d="M809.75 153.54c0,4.38 -4.38,8.76 -8.76,8.76 -4.37,0 -8.76,-4.37 -8.76,-8.76 0,-4.38 4.38,-8.76 8.76,-8.76 4.38,0 8.76,4.37 8.76,8.76z"/>
     <path class="fil1" d="M709.05 214.84l-4.38 4.38c-4.37,0 -8.76,-4.38 -8.76,-4.38 0,-4.37 4.38,-8.76 8.76,-8.76 0,0 4.38,4.38 4.38,8.76z"/>
     <path class="fil1" d="M726.56 227.69l-4.37 4.38c-4.38,0 -8.76,-4.38 -8.76,-4.38 0,-4.37 4.38,-8.76 8.76,-8.76 -0.01,0.29 4.37,4.38 4.37,8.76z"/>
     <path class="fil1" d="M744.08 236.45c0,4.37 0,8.76 -4.38,8.76 -4.38,0 -8.76,-4.38 -8.76,-8.76 0,0 4.37,-4.38 8.76,-4.38 4.38,0 4.38,4.38 4.38,4.38z"/>
     <path class="fil1" d="M717.8 262.72c0,0 -4.38,4.38 -8.76,4.38l-4.38 -4.38c0,-4.37 4.38,-8.76 4.38,-8.76 4.37,0 8.76,4.38 8.76,8.76z"/>
     <path class="fil1" d="M573.31 363.42c0,0 0,4.38 -4.38,4.38 -4.37,0 -4.37,-4.38 -4.37,-4.38 0,-4.38 0,-8.76 4.37,-8.76 4.38,0 4.38,4.37 4.38,8.76z"/>
     <path class="fil1" d="M599.58 394.07c0,4.38 0,4.38 -4.38,4.38 -4.38,0 -4.38,0 -4.38,-4.38 0,-4.37 0,-8.76 4.38,-8.76 4.38,0 4.38,4.38 4.38,8.76z"/>
     <path class="fil1" d="M582.06 910.46c0,4.37 -4.37,8.76 -8.76,8.76 -4.38,0 -4.38,-4.38 -4.38,-8.76 0,-4.38 0,-4.38 4.38,-4.38 4.38,0 8.76,0 8.76,4.38z"/>
     <path class="fil1" d="M586.44 1054.95c0,4.38 -4.38,8.76 -8.76,8.76 -4.38,0 -8.76,-4.38 -8.76,-8.76 0,-4.37 4.38,-8.76 8.76,-8.76 4.37,0 8.76,4.38 8.76,8.76z"/>
     <path class="fil1" d="M503.25 1129.39l-4.37 4.37c-4.38,0 -8.76,-4.37 -8.76,-4.37 0,-4.38 4.37,-8.76 8.76,-8.76 0,0 4.37,4.38 4.37,8.76z"/>
     <path class="fil1" d="M406.92 1155.66c0,4.38 -4.37,8.76 -8.76,8.76 -4.38,0 -8.76,-4.37 -8.76,-8.76 0,-4.37 4.37,-4.37 8.76,-4.37 4.38,0 8.76,0 8.76,4.37z"/>
     <path class="fil1" d="M385.02 1089.98c0,4.38 -4.37,8.76 -4.37,8.76 -4.38,0 -8.76,-4.37 -8.76,-8.76 0,-4.37 4.38,-4.37 8.76,-4.37 0,0 4.37,0 4.37,4.37z"/>
     <path class="fil1" d="M376.56 1133.77c0,4.38 -4.38,4.38 -8.76,4.38 -4.38,0 -4.38,0 -4.38,-4.38 0,-4.37 0,-8.76 4.38,-8.76 4.37,0 8.76,4.38 8.76,8.76z"/>
     <path class="fil1" d="M302.12 1098.74c0,4.38 -4.37,4.38 -4.37,4.38 -4.38,0 -8.76,0 -8.76,-4.38 0,-4.37 4.37,-8.76 8.76,-8.76 0,0 4.37,4.38 4.37,8.76z"/>
     <path class="fil1" d="M555.79 1216.67c0,4.37 -4.38,4.37 -4.38,4.37 -4.38,0 -8.76,0 -8.76,-4.37 0,-4.38 4.37,-8.76 8.76,-8.76 0,0 4.38,4.37 4.38,8.76z"/>
     <path class="fil1" d="M630.23 1160.04c0,4.37 0,8.76 -4.38,8.76 -4.37,0 -8.76,-4.38 -8.76,-8.76 0,-4.38 4.38,-8.76 8.76,-8.76 4.38,0 4.38,4.37 4.38,8.76z"/>
     <path class="fil1" d="M638.98 1229.81c0,4.37 0,8.76 -4.38,8.76 -4.37,0 -4.37,-4.38 -4.37,-8.76 0,0 0,-4.38 4.37,-4.38 4.38,0 4.38,4.38 4.38,4.38z"/>
     <path class="fil1" d="M953.96 1164.42c0,4.38 0,4.38 -4.38,4.38 -4.38,0 -8.76,0 -8.76,-4.38 0,-4.37 4.37,-8.76 8.76,-8.76 4.38,0 4.38,4.38 4.38,8.76z"/>
     <path class="fil1" d="M809.75 1216.67c0,0 -4.38,4.37 -8.76,4.37l-4.37 -4.37c0,-4.38 4.37,-8.76 4.37,-8.76 4.38,0 8.76,4.37 8.76,8.76z"/>
     <path class="fil1" d="M1203.53 1291.11c0,0 -4.38,4.38 -8.76,4.38l-4.38 -4.38c0,-4.37 4.38,-8.76 4.38,-8.76 4.37,0 8.76,4.37 8.76,8.76z"/>
     <path class="fil1" d="M1234.18 998.04c0,4.37 -4.37,8.76 -8.76,8.76 -4.38,0 -4.38,-4.38 -4.38,-8.76 0,-4.38 0,-4.38 4.38,-4.38 4.38,0 8.76,0 8.76,4.38z"/>
     <path class="fil1" d="M1172.89 1041.82c0,4.37 0,4.37 -4.38,4.37 -4.37,0 -8.76,0 -8.76,-4.37 0,-4.38 4.38,-8.76 8.76,-8.76 4.38,0 4.38,4.38 4.38,8.76z"/>
     <path class="fil1" d="M1234.18 1050.58c0,4.37 -4.37,8.76 -8.76,8.76 -4.38,0 -8.76,-4.38 -8.76,-8.76 0,-4.38 4.37,-4.38 8.76,-4.38 4.38,0 8.76,0 8.76,4.38z"/>
     <path class="fil1" d="M1172.89 1125.01c0,4.38 0,8.76 -4.38,8.76 -4.37,0 -8.76,-4.37 -8.76,-8.76 0,-4.38 4.38,-4.38 8.76,-4.38 4.38,0 4.38,0 4.38,4.38z"/>
     <path class="fil1" d="M1325.84 958.62c0,4.38 0,4.38 -4.38,4.38 -4.37,0 -4.37,0 -4.37,-4.38 0,-4.37 0,-4.37 4.37,-4.37 4.38,0 4.38,0 4.38,4.37z"/>
     <path class="fil1" d="M1343.35 993.65c0,4.38 -4.37,8.76 -8.76,8.76 -4.37,0 -8.76,-4.37 -8.76,-8.76 0,0 4.38,-4.38 8.76,-4.38 4.38,0 8.76,4.38 8.76,4.38z"/>
     <path class="fil1" d="M1448.45 1041.82c0,4.37 -4.38,4.37 -8.76,4.37 -4.38,0 -8.76,0 -8.76,-4.37 0,-4.38 4.37,-8.76 8.76,-8.76 4.37,0 8.76,4.38 8.76,8.76z"/>
     <path class="fil1" d="M1338.98 1120.63c0,0 0,4.38 -4.38,4.38 -4.37,0 -4.37,-4.38 -4.37,-4.38 0,-4.37 0,-8.76 4.37,-8.76 4.38,0 4.38,4.38 4.38,8.76z"/>
     <path class="fil1" d="M1409.03 1054.95c0,4.38 -4.37,4.38 -8.76,4.38 0,0 -4.37,0 -4.37,-4.38 0,-4.37 4.37,-4.37 4.37,-4.37 4.38,0 8.76,0 8.76,4.37z"/>
     <path class="fil1" d="M1395.9 1155.66l-4.38 4.38c-4.38,0 -8.76,-4.38 -8.76,-4.38 0,-4.37 4.37,-8.76 8.76,-8.76 0,0 4.38,4.38 4.38,8.76z"/>
     <path class="fil1" d="M984.61 144.79c0,-4.38 4.37,-4.38 8.76,-8.76 0,-13.14 0,-13.14 0,-13.14 4.37,13.14 4.37,13.14 4.37,13.14 4.38,4.37 8.76,4.37 8.76,8.76 17.51,4.37 17.51,4.37 17.51,4.37 -17.51,4.38 -17.51,4.38 -17.51,4.38 0,0 -4.38,4.37 -8.76,4.37 -4.37,17.52 -4.37,17.52 -4.37,17.52 0,-17.52 0,-17.52 0,-17.52 -4.38,0 -8.76,-4.37 -8.76,-8.76 -13.14,0 -13.14,0 -13.14,0 13.14,-4.37 13.14,-4.37 13.14,-4.37z"/>
     <path class="fil1" d="M560.17 1304.24c4.38,-4.38 4.38,-8.76 8.76,-8.76 4.38,-17.52 4.38,-17.52 4.38,-17.52 4.38,17.52 4.38,17.52 4.38,17.52 0,0 4.37,4.37 4.37,8.76 17.52,0 17.52,0 17.52,0 -17.52,4.37 -17.52,4.37 -17.52,4.37 0,4.38 -4.37,4.38 -8.76,8.76 0,13.13 0,13.13 0,13.13 -4.38,-13.13 -4.38,-13.13 -4.38,-13.13 -4.37,-4.38 -4.37,-4.38 -8.76,-8.76 -13.14,-4.37 -13.14,-4.37 -13.14,-4.37 13.14,0 13.14,0 13.14,0z"/>
     <path class="fil1" d="M1338.98 1151.29c0,0 4.37,-4.38 8.76,-4.38 4.37,-17.51 4.37,-17.51 4.37,-17.51 0,17.51 0,17.51 0,17.51 4.38,0 8.76,4.38 8.76,8.76 17.51,0 17.51,0 17.51,0 -17.51,4.38 -17.51,4.38 -17.51,4.38 0,4.37 -4.38,4.37 -8.76,8.76 0,13.14 0,13.14 0,13.14 -4.37,-17.52 -4.37,-17.52 -4.37,-17.52 -4.38,0 -8.76,0 -8.76,-4.37 -13.14,-4.38 -13.14,-4.38 -13.14,-4.38 13.14,-4.37 13.14,-4.37 13.14,-4.37z"/>
     <path class="fil1" d="M1400.28 984.9c4.38,0 4.38,-4.38 8.76,-4.38 4.38,-17.51 4.38,-17.51 4.38,-17.51 0,17.51 0,17.51 0,17.51 4.37,0 8.76,4.38 8.76,8.76 17.51,0 17.51,0 17.51,0 -17.51,4.38 -17.51,4.38 -17.51,4.38 0,4.38 -4.38,4.38 -8.76,8.76 0,13.14 0,13.14 0,13.14 -4.38,-17.51 -4.38,-17.51 -4.38,-17.51 -4.37,0 -8.76,0 -8.76,-4.38 -13.14,-4.38 -13.14,-4.38 -13.14,-4.38 13.14,-4.37 13.14,-4.37 13.14,-4.37z"/>
     <path class="fil1" d="M638.98 372.18c0,-4.37 4.38,-4.37 8.76,-8.76 0,-13.14 0,-13.14 0,-13.14 4.38,13.14 4.38,13.14 4.38,13.14 4.37,4.38 4.37,4.38 8.76,8.76 13.14,4.38 13.14,4.38 13.14,4.38 -17.52,0 -17.52,0 -17.52,0 0,4.37 0,8.76 -4.37,8.76 -4.38,17.51 -4.38,17.51 -4.38,17.51 -4.37,-17.51 -4.37,-17.51 -4.37,-17.51 0,0 -4.38,-4.38 -4.38,-8.76 -17.51,0 -17.51,0 -17.51,0 17.51,-4.38 17.51,-4.38 17.51,-4.38z"/>
     <path class="fil1" d="M586.44 722.47c56.92,96.34 122.6,170.77 175.14,236.45 43.79,61.3 135.74,91.95 105.08,118.22 -35.03,30.65 -122.6,-109.46 -122.6,-109.46 -56.92,-70.06 -113.84,-144.5 -170.76,-240.82 13.14,-4.38 13.14,-4.38 13.14,-4.38z"/>
     <path class="fil2" d="M-0 976.14c266.8,-175.15 739.4,-288.7 1124.72,-441.95 293.08,-118.23 551.41,-262.72 695.61,-463.84 -358.75,721.88 -1347.74,638.69 -1802.82,914.54 -17.51,-8.76 -17.51,-8.76 -17.51,-8.76z"/>
     <path class="fil1" d="M625.85 617.38l131.36 0 100.71 245.2 30.65 30.65 -175.14 0 30.66 -30.65 -8.76 -30.66 -100.71 0 -8.76 35.03 21.89 26.27 -87.57 0 30.65 -30.65 61.31 -214.26 -26.27 -30.94zm91.95 170.48l-39.41 -96.34 -30.65 96.34 70.06 0z"/>
     <path class="fil1" d="M1251.7 617.38l135.73 0 100.71 245.2 30.65 30.65 -175.14 0 30.65 -30.65 -8.76 -30.66 -100.71 0 -8.76 35.03 21.89 26.27 -87.57 0 30.65 -30.65 61.31 -214.26 -30.65 -30.94zm96.03 170.48l-39.41 -96.34 -30.65 96.34 70.06 0z"/>
     <path class="fil1" d="M441.95 787.86c0,-8.76 0,-140.12 0,-140.12 -26.27,-30.65 -26.27,-30.65 -26.27,-30.65 91.95,0 91.95,0 91.95,0 -26.27,30.65 -26.27,30.65 -26.27,30.65 0,214.26 0,214.26 0,214.26 30.65,30.65 30.65,30.65 30.65,30.65 -122.6,0 -122.6,0 -122.6,0 -105.08,-179.52 -105.08,-179.52 -105.08,-179.52 0,8.76 0,148.87 0,148.87 26.27,30.65 26.27,30.65 26.27,30.65 -96.33,0 -96.33,0 -96.33,0 30.65,-30.65 30.65,-30.65 30.65,-30.65 0,-214.26 0,-214.26 0,-214.26 -26.27,-30.65 -26.27,-30.65 -26.27,-30.65 122.59,0 122.59,0 122.59,0 100.71,170.77 100.71,170.77 100.71,170.77z"/>
     <path class="fil1" d="M1146.61 687.45c-4.37,-83.2 -4.37,-83.2 -4.37,-83.2 -26.27,17.52 -26.27,17.52 -26.27,17.52 -39.4,-13.14 -87.57,-13.14 -122.6,4.37 -30.65,13.14 -65.68,43.79 -61.3,87.57 4.37,43.79 39.4,61.31 70.05,74.44 39.41,17.51 83.2,26.27 83.2,48.16 0,17.52 -26.27,26.27 -43.79,26.27 -17.52,0 -78.82,-4.38 -109.46,-39.41 8.76,87.57 8.76,87.57 8.76,87.57 30.65,-21.89 30.65,-21.89 30.65,-21.89 39.41,13.14 87.57,17.52 131.36,4.38 43.79,-13.14 87.57,-48.17 61.31,-113.85 -8.76,-26.27 -39.41,-43.79 -56.92,-52.54 -17.52,-4.38 -65.68,-26.27 -78.82,-30.65 -17.51,-8.76 -17.51,-39.41 21.89,-43.79 35.03,-4.38 87.57,26.27 96.33,35.03z"/>
     <path class="fil2" d="M210.17 1400.57c538.28,-551.41 1343.35,-805.08 1610.45,-1330.22 -162.01,512 -1024.01,791.94 -1614.83,1356.49 4.38,-26.27 4.38,-26.27 4.38,-26.27z"/>
     <path class="fil1" d="M573.31 726.85c-4.38,-8.76 -13.14,-21.89 -17.51,-30.65 -144.5,-262.43 -122.6,-525.15 135.73,-411.3 223.02,100.71 433.19,371.89 516.39,568.92 39.4,87.58 144.49,441.95 -192.66,297.46l0 0c319.35,131.36 262.72,-201.42 91.95,-459.47 -96.34,-144.5 -223.02,-267.1 -301.83,-323.72 -267.1,-192.66 -428.81,-74.44 -245.2,306.21 8.76,17.51 17.52,30.65 26.27,48.16 -13.14,4.38 -13.14,4.38 -13.14,4.38z"/>
    </g>
   </g>
  </g>
  <path class="fil3" d="M2152.75 543.02l96.12 0 0 416.99 -96.12 0 0 -416.99zm247.1 164.27c0,-24.82 -6.72,-44.15 -20.02,-57.87 -13.44,-13.57 -32.49,-20.43 -57.04,-20.43 -23.59,0 -41.82,6.31 -54.71,19.06 -12.75,12.75 -19.2,30.71 -19.2,54.02l-8.5 -86.38c12.89,-25.64 28.94,-45.25 47.99,-58.56 19.2,-13.43 41.55,-20.15 67.33,-20.15 44.71,0 79.26,14.81 103.66,44.43 24.41,29.62 36.47,71.44 36.47,125.46l0 253.13 -95.98 0 0 -252.72z"/>
  <path id="1" class="fil3" d="M2845.08 695.64c0,-23.31 -7,-41.27 -20.71,-54.17 -13.84,-12.88 -33.32,-19.33 -58.41,-19.33 -16.18,0 -31.95,2.61 -47.44,7.68 -15.5,5.08 -29.35,12.21 -41.42,21.26l-64.31 -53.89c16.46,-18.93 37.84,-33.74 64.31,-44.29 26.46,-10.56 55.95,-15.9 88.44,-15.9 35.51,0 65.96,6.03 91.19,18.23 25.09,12.2 44.29,29.9 57.45,53.06 13.03,23.18 19.6,51.15 19.6,83.78l0 267.94 -88.71 0 0 -264.37zm-109.29 270.4c-47.99,0 -83.78,-10.69 -107.64,-31.95 -23.86,-21.25 -35.78,-53.61 -35.78,-96.95 0,-41.27 12.06,-72.26 36.2,-92.83 24,-20.7 60.2,-30.99 108.47,-30.99l111.61 0 5.63 74.74 -116.83 0c-19.06,0 -33.33,3.98 -42.64,12.07 -9.33,8.09 -14.13,20.29 -13.99,37.02 -0.14,17.28 6.03,30.17 18.23,38.53 12.2,8.22 30.72,12.48 55.67,12.48 30.44,0 53.21,-3.43 68.02,-10.15 14.94,-6.58 22.35,-17.14 22.35,-31.26l8.36 59.78c-4.52,13.16 -12.48,24.14 -23.86,33.04 -11.38,8.78 -25.09,15.36 -41.14,19.89 -16.18,4.39 -33.59,6.58 -52.65,6.58z"/>
  <path id="2" class="fil3" d="M3203.78 966.04c-24.68,0 -48.26,-2.33 -70.89,-6.99 -22.76,-4.8 -43.87,-11.66 -63.48,-20.7 -19.75,-9.19 -37.44,-20.29 -53.34,-33.33l0 0 58.28 -72.4 0 0c21.39,15.09 43.19,26.46 65.27,34.14 22.08,7.82 43.47,11.66 64.17,11.66 29.07,0 51.29,-3.98 66.37,-11.79 15.22,-7.96 22.76,-19.47 22.76,-34.83 0,-11.24 -3.7,-19.75 -11.24,-25.5 -7.54,-5.76 -17,-9.6 -28.38,-11.8 -11.39,-2.19 -27.29,-4.11 -47.99,-6.03 -3.43,-0.28 -7,-0.55 -10.56,-0.82 -3.7,-0.28 -7.4,-0.69 -11.11,-1.24 -1.09,0 -2.19,0 -3.15,-0.13 -1.09,-0.13 -2.19,-0.28 -3.29,-0.28 -29.21,-3.15 -53.06,-7.68 -71.85,-13.44 -18.79,-5.75 -34.55,-16.73 -47.17,-33.04 -12.76,-16.46 -19.2,-39.77 -19.2,-70.35 0,-28.66 6.44,-52.8 19.2,-72.54 12.61,-19.6 31.4,-34.55 55.94,-44.56 24.68,-10.01 55.12,-15.08 91.19,-15.08 21.53,0 42.37,2.05 62.66,6.16 20.44,4.25 39.9,10.28 58.56,18.11 18.51,7.95 36.06,17.82 52.38,29.62l0 0 -57.45 69.79 0 0c-19.6,-11.79 -39.35,-20.7 -59.24,-26.88 -20.02,-6.17 -39.35,-9.18 -58,-9.18 -25.23,0 -44.43,3.57 -57.45,10.83 -13.16,7.27 -19.75,17.96 -19.75,32.08 0,9.19 3.57,16.05 10.83,20.7 7.27,4.67 16.32,7.96 27.29,9.87 10.97,1.93 26.74,3.57 47.03,5.21 2.19,0.28 4.25,0.41 6.31,0.55 1.92,0.14 3.98,0.41 6.17,0.69 1.09,0.27 2.19,0.41 3.15,0.41 1.09,0 2.05,0.13 2.88,0.41 30.72,2.6 56.5,6.85 76.93,12.75 20.43,5.9 37.71,17.69 51.83,35.24 13.99,17.55 21.12,43.19 21.12,76.92 0,29.48 -6.72,54.17 -20.16,74.32 -13.3,20.02 -33.18,35.37 -59.37,45.8 -26.33,10.42 -58.69,15.63 -97.22,15.63z"/>
  <path id="3" class="fil3" d="M3709.49 695.64c0,-23.31 -7,-41.27 -20.71,-54.17 -13.84,-12.88 -33.32,-19.33 -58.41,-19.33 -16.18,0 -31.95,2.61 -47.44,7.68 -15.5,5.08 -29.35,12.21 -41.42,21.26l-64.31 -53.89c16.46,-18.93 37.84,-33.74 64.31,-44.29 26.46,-10.56 55.95,-15.9 88.44,-15.9 35.51,0 65.96,6.03 91.19,18.23 25.09,12.2 44.29,29.9 57.45,53.06 13.03,23.18 19.6,51.15 19.6,83.78l0 267.94 -88.71 0 0 -264.37zm-109.29 270.4c-47.99,0 -83.78,-10.69 -107.64,-31.95 -23.86,-21.25 -35.78,-53.61 -35.78,-96.95 0,-41.27 12.06,-72.26 36.2,-92.83 24,-20.7 60.2,-30.99 108.47,-30.99l111.61 0 5.63 74.74 -116.83 0c-19.06,0 -33.33,3.98 -42.64,12.07 -9.33,8.09 -14.13,20.29 -13.99,37.02 -0.14,17.28 6.03,30.17 18.23,38.53 12.2,8.22 30.72,12.48 55.67,12.48 30.44,0 53.21,-3.43 68.02,-10.15 14.94,-6.58 22.35,-17.14 22.35,-31.26l8.36 59.78c-4.52,13.16 -12.48,24.14 -23.86,33.04 -11.38,8.78 -25.09,15.36 -41.14,19.89 -16.18,4.39 -33.59,6.58 -52.65,6.58z"/>
  <polygon id="4" class="fil4" points="4204.77,959.6 4204.77,1051.61 3862.51,1051.61 3862.51,959.6 "/>
  <path id="5" class="fil4" d="M4447.75 966.04c-39.36,0 -72.95,-7.27 -100.79,-21.93 -27.97,-14.54 -49.23,-35.79 -63.9,-63.9 -14.81,-27.97 -22.08,-61.57 -22.08,-100.92l0 -47.03c0,-41.27 6.99,-76.52 20.97,-105.72 14.13,-29.21 34.55,-51.42 61.57,-66.64 26.88,-15.22 59.24,-22.9 96.95,-22.9 35.66,0 66.1,8.91 91.46,26.73 25.23,17.83 44.56,43.6 57.87,77.33 13.16,33.74 19.88,74.46 19.88,122.04l0 27.42 -283.29 0 0 -70.34 194.03 0 -0.41 -4.8c-2.61,-28.93 -10.84,-51.42 -24.41,-67.46 -13.71,-16.18 -32.08,-24.14 -55.12,-24.14 -28.65,0 -50.87,9.05 -66.64,27.15 -15.77,17.96 -23.72,43.61 -23.72,76.93l0 52.93c0,31.4 8.5,55.53 25.51,72.53 17,17 41,25.51 72.13,25.51 15.77,0 31.4,-2.88 46.76,-8.77 15.36,-5.9 29.34,-14.4 41.54,-25.37l0 0 62.67 59.1 0 0c-21.12,19.75 -44.84,35.1 -71.3,45.93 -26.33,10.83 -52.93,16.31 -79.66,16.31z"/>
  <path id="6" class="fil4" d="M4825.79 778.87l-157.55 -235.85 106.54 0 109.7 177.58 160.56 239.41 -105.58 0 -113.67 -181.14zm-11.24 -49.09l52.24 75.55 -100.92 154.68 -104.07 0 152.75 -230.23zm33.73 -38.94l84.33 -147.82 106.13 0 -140.68 225.02 -49.78 -77.2z"/>
  <path id="7" class="fil4" d="M5127.46 543.02l96.12 0 0 586.47 -96.12 0 0 -586.47zm196.91 423.02c-25.23,0 -47.03,-6.16 -65.54,-18.64 -18.37,-12.48 -32.09,-30.17 -40.86,-52.93l5.62 -91.19c0,15.9 2.74,29.34 8.37,40.45 5.62,11.11 13.85,19.61 24.55,25.51 10.69,5.9 23.72,8.77 38.94,8.77 23.87,0 42.38,-7.54 55.4,-22.62 13.16,-15.22 19.75,-36.34 19.75,-63.76l0 -78.3c0,-28.11 -6.58,-49.91 -19.75,-65.27 -13.03,-15.36 -31.54,-23.03 -55.4,-23.03 -15.22,0 -28.25,2.88 -38.94,8.64 -10.7,5.76 -18.93,14.26 -24.55,25.51 -5.63,11.24 -8.37,24.68 -8.37,40.58l-8.5 -86.38c12.07,-24.41 27.7,-43.2 47.03,-56.5 19.33,-13.3 40.73,-19.88 64.31,-19.88 29.35,0 54.71,6.85 75.69,20.43 20.98,13.72 37.03,33.73 47.99,60.06 10.97,26.46 16.46,58.28 16.46,95.43l0 78.71c0,36.75 -5.49,68.15 -16.59,94.06 -11.24,25.92 -27.42,45.8 -48.68,59.65 -21.25,13.85 -46.89,20.7 -76.92,20.7z"/>
  <path id="8" class="fil4" d="M5671.15 837.15c0,10.15 2.47,17.96 7.54,23.45 5.07,5.48 12.35,8.22 21.81,8.22l28.52 0 0 92.01 -52.24 0c-32.23,0 -57.18,-9.6 -75.01,-28.94 -17.83,-19.33 -26.74,-46.48 -26.74,-81.58l0 -474.44 96.12 0 0 461.27z"/>
  <path id="9" class="fil4" d="M5977.21 966.04c-37.02,0 -68.7,-7.12 -95.02,-21.25 -26.33,-14.26 -46.49,-34.97 -60.34,-62.11 -13.71,-27.15 -20.56,-59.93 -20.56,-98.18l0 -67.87c0,-37.85 6.85,-70.21 20.56,-97.09 13.85,-26.87 34.01,-47.44 60.34,-61.42 26.32,-14.13 58,-21.12 95.02,-21.12 37.16,0 68.98,6.99 95.17,21.12 26.32,13.99 46.35,34.55 60.05,61.42 13.85,26.88 20.7,59.24 20.7,97.09l0 69.11c0,37.98 -6.85,70.48 -20.7,97.36 -13.71,26.87 -33.73,47.44 -60.05,61.7 -26.2,14.13 -58.01,21.25 -95.17,21.25zm0 -92.01c25.37,0 45.12,-7.81 58.97,-23.3 13.99,-15.5 20.98,-37.16 20.98,-65l0 -69.11c0,-27.98 -7,-49.51 -20.98,-64.72 -13.85,-15.22 -33.6,-22.9 -58.97,-22.9 -25.5,0 -45.11,7.68 -59.09,22.9 -13.85,15.21 -20.85,36.74 -20.85,64.72l0 69.11c0,27.84 7,49.5 20.85,65 13.99,15.49 33.6,23.3 59.09,23.3z"/>
  <path id="10" class="fil4" d="M6261.6 543.02l100.1 0 0 416.99 -100.1 0 0 -416.99zm232.29 107.23c-6.45,-7 -14.4,-12.2 -23.72,-15.91 -9.33,-3.57 -20.29,-5.34 -32.5,-5.34 -24.13,0 -42.78,7.12 -56.08,21.52 -13.3,14.26 -19.88,34.15 -19.88,59.65l-8.5 -94.47c12.35,-24.82 28.25,-44.15 47.45,-58 19.33,-13.85 40.58,-20.7 63.9,-20.7 18.24,0 34.7,2.74 49.36,8.22 14.81,5.48 27.57,13.57 38.67,24.27l-58.68 80.77z"/>
  <path id="11" class="fil4" d="M6779.51 966.04c-39.36,0 -72.95,-7.27 -100.79,-21.93 -27.97,-14.54 -49.23,-35.79 -63.9,-63.9 -14.81,-27.97 -22.08,-61.57 -22.08,-100.92l0 -47.03c0,-41.27 6.99,-76.52 20.97,-105.72 14.13,-29.21 34.55,-51.42 61.57,-66.64 26.88,-15.22 59.24,-22.9 96.95,-22.9 35.66,0 66.1,8.91 91.46,26.73 25.23,17.83 44.56,43.6 57.87,77.33 13.16,33.74 19.88,74.46 19.88,122.04l0 27.42 -283.29 0 0 -70.34 194.03 0 -0.41 -4.8c-2.61,-28.93 -10.84,-51.42 -24.41,-67.46 -13.71,-16.18 -32.08,-24.14 -55.12,-24.14 -28.65,0 -50.87,9.05 -66.64,27.15 -15.77,17.96 -23.72,43.61 -23.72,76.93l0 52.93c0,31.4 8.5,55.53 25.51,72.53 17,17 41,25.51 72.13,25.51 15.77,0 31.4,-2.88 46.76,-8.77 15.36,-5.9 29.34,-14.4 41.54,-25.37l0 0 62.67 59.1 0 0c-21.12,19.75 -44.84,35.1 -71.3,45.93 -26.33,10.83 -52.93,16.31 -79.66,16.31z"/>
  <path id="12" class="fil4" d="M7045.8 543.02l100.1 0 0 416.99 -100.1 0 0 -416.99zm232.29 107.23c-6.45,-7 -14.4,-12.2 -23.72,-15.91 -9.33,-3.57 -20.29,-5.34 -32.5,-5.34 -24.13,0 -42.78,7.12 -56.08,21.52 -13.3,14.26 -19.88,34.15 -19.88,59.65l-8.5 -94.47c12.35,-24.82 28.25,-44.15 47.45,-58 19.33,-13.85 40.58,-20.7 63.9,-20.7 18.24,0 34.7,2.74 49.36,8.22 14.81,5.48 27.57,13.57 38.67,24.27l-58.68 80.77z"/>
 </g>
</svg>
